<svg width="20" height="17" viewBox="0 0 20 17" fill="none" xmlns="http://www.w3.org/2000/svg">
<g opacity="0.6">
<path d="M20.001 2.01939C19.2655 2.35134 18.4651 2.59025 17.6407 2.6833C18.4966 2.15126 19.1376 1.31072 19.4433 0.319389C18.6402 0.819303 17.7603 1.16985 16.8427 1.35548C16.4592 0.926527 15.9954 0.5848 15.4801 0.351597C14.9649 0.118394 14.4093 -0.00128703 13.8479 1.04374e-05C11.5765 1.04374e-05 9.74981 1.92634 9.74981 4.29025C9.74981 4.6222 9.78826 4.95415 9.85075 5.27353C6.44972 5.08744 3.41643 3.38744 1.39985 0.784626C1.0324 1.44128 0.839851 2.18895 0.842221 2.94986C0.842221 4.43862 1.56569 5.75134 2.66893 6.52339C2.01877 6.4966 1.38385 6.30962 0.815783 5.97768V6.03049C0.815783 8.11525 2.22427 9.84292 4.10145 10.2403C3.74898 10.336 3.3864 10.385 3.02225 10.3861C2.75545 10.3861 2.50308 10.3584 2.2483 10.3207C2.76747 12.0207 4.27931 13.2555 6.07957 13.2957C4.67109 14.45 2.90688 15.129 0.991242 15.129C0.647534 15.129 0.330264 15.1164 0.000976562 15.0762C1.81807 16.2959 3.97406 17 6.29589 17C13.8334 17 17.958 10.4666 17.958 4.79572C17.958 4.60963 17.958 4.42353 17.9459 4.23744C18.7439 3.62634 19.4434 2.86939 20.001 2.01939Z" fill="#141A24"/>
</g>
</svg>
