<svg width="20" height="20" viewBox="0 0 20 20" fill="none" xmlns="http://www.w3.org/2000/svg">
<g opacity="0.6">
<g clip-path="url(#clip0_158_80)">
<path d="M9.98854 19.9952C8.16299 19.9952 6.33669 19.9787 4.51114 19.9952C3.44669 20.0049 2.41358 19.6353 1.5969 18.9527C0.780213 18.2701 0.233321 17.319 0.0541957 16.27C0.0284875 16.1213 0.0151837 15.9707 0.0144261 15.8199C0.0144261 11.9445 -0.023838 8.06846 0.026434 4.19239C0.0526955 2.1347 1.67716 0.392083 3.71205 0.0582625C3.87242 0.030661 4.03478 0.0161101 4.19751 0.0147531C8.0617 0.0147531 11.9259 -0.0227541 15.7893 0.0260062C17.87 0.0522618 19.616 1.68011 19.9461 3.73104C19.9709 3.87982 19.984 4.03032 19.9852 4.18114C19.9852 8.05721 20.0234 11.9333 19.9739 15.8086C19.9469 17.8828 18.3029 19.6344 16.2515 19.9465C15.9281 19.9873 15.6021 20.0043 15.2761 19.9975C13.5151 19.9975 11.7541 19.9952 9.98854 19.9952ZM9.97954 16.4642C11.2577 16.4678 12.5083 16.0925 13.5732 15.3858C14.6381 14.679 15.4697 13.6726 15.9627 12.4936C16.4557 11.3145 16.5882 10.0159 16.3433 8.76166C16.0984 7.50743 15.4871 6.35391 14.5868 5.44684C13.6864 4.53978 12.5374 3.91987 11.2848 3.66544C10.0322 3.41101 8.73223 3.53348 7.54922 4.01737C6.36621 4.50126 5.35319 5.32486 4.63817 6.38411C3.92315 7.44336 3.5382 8.69073 3.53197 9.96862C3.52403 10.8197 3.68502 11.6639 4.00561 12.4523C4.3262 13.2407 4.80004 13.9578 5.39968 14.5619C5.99932 15.166 6.71287 15.6452 7.499 15.9717C8.28514 16.2983 9.12825 16.4657 9.97954 16.4642ZM16.6267 4.68675C16.8044 4.68926 16.9808 4.6562 17.1455 4.58951C17.3102 4.52283 17.4598 4.42386 17.5857 4.29845C17.7116 4.17304 17.811 4.02372 17.8783 3.85928C17.9455 3.69484 17.9792 3.5186 17.9773 3.34096C17.9809 3.16004 17.9481 2.98024 17.8809 2.81224C17.8137 2.64424 17.7133 2.49146 17.5859 2.36299C17.4584 2.23451 17.3064 2.13296 17.139 2.06436C16.9715 1.99576 16.7919 1.96152 16.6109 1.96367C16.2524 1.9656 15.9089 2.10816 15.6543 2.36067C15.3998 2.61318 15.2546 2.95548 15.2498 3.31395C15.2473 3.49508 15.2812 3.67487 15.3496 3.84261C15.418 4.01036 15.5194 4.16263 15.6479 4.29037C15.7764 4.41811 15.9292 4.51869 16.0974 4.58615C16.2655 4.6536 16.4455 4.68653 16.6267 4.68299V4.68675Z" fill="#141A24"/>
<path d="M13.6787 9.98155C13.6787 12.007 12.028 13.6716 10.0194 13.6761C8.01074 13.6806 6.32851 12.0257 6.32325 10.0168C6.318 8.00788 7.97398 6.32603 9.98336 6.32227C12.0055 6.31777 13.675 7.97113 13.6787 9.98155Z" fill="#141A24"/>
</g>
</g>
<defs>
<clipPath id="clip0_158_80">
<rect width="20" height="20" fill="white" transform="translate(0.000244141)"/>
</clipPath>
</defs>
</svg>
