<svg width="20" height="20" viewBox="0 0 20 20" fill="none" xmlns="http://www.w3.org/2000/svg">
<g opacity="0.6">
<path d="M15.8525 19.9687C15.8525 18.9284 15.8604 17.9116 15.8525 16.8948C15.8369 15.307 15.8604 13.7113 15.7744 12.1235C15.665 10.0039 14.1025 9.65189 12.665 10.129C11.9619 10.3637 11.5947 10.9346 11.415 11.623C11.3213 11.9984 11.251 12.3895 11.251 12.7806C11.2354 15.0254 11.2354 17.2624 11.2354 19.5072C11.2354 19.6636 11.2354 19.8122 11.2354 19.9921C9.84473 19.9921 8.48535 19.9921 7.10254 19.9921C7.10254 15.5494 7.10254 11.1302 7.10254 6.67184C8.40723 6.67184 9.7041 6.67184 11.0479 6.67184C11.0479 7.25064 11.0479 7.8138 11.0479 8.40825C11.3994 8.03281 11.6885 7.65737 12.04 7.36014C13.1338 6.43719 14.4307 6.18689 15.8057 6.37461C16.4775 6.46847 17.1572 6.64837 17.7666 6.93777C18.8682 7.454 19.4229 8.45518 19.6729 9.60496C19.8447 10.4028 19.9619 11.224 19.9775 12.0375C20.0166 14.603 19.9932 17.1763 19.9932 19.7418C19.9932 19.8044 19.9854 19.8748 19.9775 19.9687C18.6182 19.9687 17.2588 19.9687 15.8525 19.9687Z" fill="#141A24"/>
<path d="M0.344727 6.66406C1.71973 6.66406 3.05566 6.66406 4.43066 6.66406C4.43066 11.1068 4.43066 15.5417 4.43066 20C3.07129 20 1.72754 20 0.344727 20C0.344727 15.5651 0.344727 11.1302 0.344727 6.66406Z" fill="#141A24"/>
<path d="M4.78227 2.40907C4.77446 3.73876 3.69633 4.84161 2.39946 4.84943C1.08696 4.84161 -0.00679434 3.71529 0.00101816 2.36996C0.00883066 1.06375 1.08696 0 2.39164 0C3.73539 0 4.79008 1.06375 4.78227 2.40907Z" fill="#141A24"/>
</g>
</svg>
