<svg width="24" height="24" viewBox="0 0 24 24" fill="none" xmlns="http://www.w3.org/2000/svg">
<g clip-path="url(#clip0_815_111)">
<path d="M5.53536 1.681C5.65317 0.323557 5.8331 0 6.43072 0C7.02619 0 7.20933 0.328914 7.32286 1.63814H16.6812C16.7701 0.976028 16.5002 0.0835677 17.5777 0.00749967C18.1635 -0.0332128 18.337 0.314986 18.4666 1.67993C18.8264 1.67993 19.1949 1.67671 19.5633 1.67993C22.184 1.70457 23.9897 3.51734 23.994 6.14865C24.0004 10.612 24.0015 15.0765 23.994 19.5398C23.9897 22.1562 22.1573 23.9904 19.544 23.9936C14.5103 24 9.47663 24.0011 4.44401 23.9936C1.8372 23.9914 0.00900905 22.1519 0.00579605 19.5323C-0.000629935 15.069 -0.000629935 10.6045 0.00579605 6.14115C0.00900905 3.5152 1.82114 1.70457 4.44508 1.681C4.79851 1.67778 5.15194 1.681 5.53536 1.681ZM1.72046 8.58176C1.72046 8.76175 1.72046 8.94924 1.72046 9.13674C1.72046 12.563 1.72046 15.9893 1.72046 19.4156C1.72046 21.2391 2.75291 22.2794 4.56396 22.2794C9.52269 22.2804 14.4825 22.2804 19.4412 22.2794C21.2298 22.2794 22.2783 21.2391 22.2793 19.4648C22.2815 16.0204 22.2793 12.5769 22.2793 9.13245C22.2793 8.95889 22.2793 8.78425 22.2793 8.58176H1.72046ZM5.41862 3.41985C2.77111 3.22486 1.22352 4.64444 1.80614 6.80327H22.2258C22.5792 4.39159 21.0413 3.03094 18.4387 3.46592C18.3873 4.10446 18.6251 5.01835 17.5894 5.03549C16.5024 5.0537 16.7755 4.09482 16.6802 3.44128H7.325C7.21254 4.728 7.04761 5.05156 6.47355 5.04728C6.27542 5.0462 5.96269 4.97978 5.90164 4.84907C5.69922 4.41945 5.58891 3.94804 5.41969 3.41985H5.41862Z" fill="#FF751C"/>
<path d="M10.8168 16.9353C12.328 15.4247 13.7888 13.9633 15.2497 12.503C15.4007 12.352 15.5453 12.1913 15.7081 12.0541C16.0797 11.7424 16.5456 11.752 16.8712 12.0648C17.216 12.3948 17.2481 12.8898 16.9001 13.2616C16.3881 13.808 15.8473 14.3265 15.3182 14.8569C14.0705 16.1061 12.8249 17.3564 11.574 18.6013C11.0321 19.1413 10.6122 19.137 10.0639 18.5917C9.12784 17.6617 8.19607 16.7275 7.26537 15.7922C6.78664 15.3111 6.73416 14.8194 7.10901 14.438C7.48921 14.0501 7.98294 14.094 8.46596 14.574C9.23708 15.3401 9.99963 16.1136 10.8168 16.9364V16.9353Z" fill="#FF751C"/>
</g>
<defs>
<clipPath id="clip0_815_111">
<rect width="24" height="24" fill="white"/>
</clipPath>
</defs>
</svg>
